<svg width="527" height="701" viewBox="0 0 527 701" fill="none" xmlns="http://www.w3.org/2000/svg">
<rect width="527" height="701" fill="#F3F3F3"/>
<path d="M390.313 424.773C392.526 411.742 411.246 411.742 413.46 424.773C415.098 434.415 427.116 437.944 433.707 430.719C442.615 420.953 458.363 431.074 453.18 443.233C449.345 452.23 457.548 461.696 466.999 459.181C479.772 455.781 487.549 472.809 476.615 480.236C468.524 485.732 470.307 498.13 479.618 501.123C492.201 505.169 489.537 523.699 476.323 524.035C466.547 524.284 461.343 535.678 467.557 543.23C475.956 553.437 463.697 567.585 452.399 560.724C444.04 555.647 433.502 562.42 434.647 572.132C436.194 585.259 418.233 590.533 412.437 578.654C408.149 569.864 395.623 569.864 391.335 578.654C385.54 590.533 367.578 585.259 369.126 572.132C370.271 562.42 359.733 555.647 351.374 560.724C340.076 567.585 327.816 553.437 336.215 543.23C342.43 535.678 337.226 524.284 327.449 524.035C314.236 523.699 311.571 505.169 324.155 501.123C333.466 498.13 335.248 485.732 327.158 480.236C316.224 472.809 324.001 455.781 336.774 459.181C346.225 461.696 354.428 452.23 350.593 443.233C345.41 431.074 361.158 420.953 370.065 430.719C376.656 437.944 388.675 434.415 390.313 424.773Z" fill="#FFD06A"/>
<path d="M364 151L369.25 210.75M374.5 270.5L369.25 210.75M369.25 210.75C386.913 222.355 393.053 208.522 402 173" stroke="#56CA5E" stroke-width="27" stroke-linecap="round" stroke-linejoin="round"/>
<path d="M206.897 249.726L104.5 234.747C90.9205 232.76 90.7721 213.22 104.32 211.027L134.287 206.177C141.887 204.947 146.379 196.98 143.498 189.841L128.034 151.519C123.311 139.813 137.541 129.688 147.052 137.987L176.777 163.925C182.728 169.118 191.987 167.245 195.451 160.146L211.469 127.324C217.429 115.112 235.898 120.651 234.154 134.127L220.535 239.392C219.675 246.042 213.532 250.697 206.897 249.726Z" fill="#FF0000"/>
</svg>
