<svg width="527" height="293" viewBox="0 0 527 293" fill="none" xmlns="http://www.w3.org/2000/svg">
<g clip-path="url(#clip0_1135_408)">
<rect width="527" height="293" fill="#F3F3F3"/>
<path d="M401.73 83.2652C403.599 72.2449 419.401 72.2449 421.27 83.2652C422.652 91.4191 432.798 94.4035 438.361 88.2928C445.88 80.0341 459.174 88.5931 454.799 98.876C451.562 106.484 458.486 114.49 466.464 112.363C477.246 109.487 483.811 123.888 474.581 130.169C467.752 134.816 469.257 145.301 477.116 147.833C487.738 151.254 485.489 166.924 474.335 167.208C466.082 167.419 461.69 177.055 466.935 183.441C474.025 192.073 463.677 204.037 454.14 198.235C447.083 193.942 438.188 199.669 439.155 207.883C440.461 218.984 425.299 223.445 420.406 213.398C416.787 205.965 406.213 205.965 402.594 213.398C397.702 223.445 382.539 218.984 383.845 207.883C384.812 199.669 375.917 193.942 368.86 198.235C359.323 204.037 348.975 192.073 356.065 183.441C361.31 177.055 356.918 167.419 348.665 167.208C337.511 166.924 335.262 151.254 345.884 147.833C353.743 145.301 355.248 134.816 348.419 130.169C339.189 123.888 345.754 109.487 356.536 112.363C364.514 114.49 371.438 106.484 368.201 98.876C363.826 88.5931 377.12 80.0341 384.639 88.2928C390.202 94.4035 400.348 91.4191 401.73 83.2652Z" fill="#FFD06A"/>
<path d="M244 87L249.25 146.75M254.5 206.5L249.25 146.75M249.25 146.75C266.913 158.355 273.053 144.522 282 109" stroke="#56CA5E" stroke-width="27" stroke-linecap="round" stroke-linejoin="round"/>
<path d="M143.897 213.726L41.4999 198.747C27.9205 196.76 27.7721 177.22 41.3197 175.027L71.2873 170.177C78.8872 168.947 83.3793 160.98 80.4983 153.841L65.0343 115.519C60.3106 103.813 74.5412 93.6876 84.0522 101.987L113.777 127.925C119.728 133.118 128.987 131.245 132.451 124.146L148.469 91.3237C154.429 79.1123 172.898 84.6509 171.154 98.1266L157.535 203.392C156.675 210.042 150.532 214.696 143.897 213.726Z" fill="#FF0000"/>
</g>
<defs>
<clipPath id="clip0_1135_408">
<rect width="527" height="293" fill="white"/>
</clipPath>
</defs>
</svg>
